<?xml version="1.0" standalone="no"?><!DOCTYPE svg PUBLIC "-//W3C//DTD SVG 1.1//EN" "http://www.w3.org/Graphics/SVG/1.1/DTD/svg11.dtd"><svg t="1765100588254" class="icon" viewBox="0 0 1024 1024" version="1.1" xmlns="http://www.w3.org/2000/svg" p-id="8789" xmlns:xlink="http://www.w3.org/1999/xlink" width="32" height="32"><path d="M890.018 555.23c0.1 0.306 0.21 0.604 0.336 0.892 0.07 0.324 0.154 0.648 0.258 0.97l0.588 1.856 0.038 0.118c0.33 1.05 0.656 2.1 0.976 3.148 0.032 0.12 0.066 0.238 0.102 0.358a552.684 552.684 0 0 1 7.474 26.626 10.002 10.002 0 0 0 19.386-4.918 576.342 576.342 0 0 0-7.646-27.266c-0.03-0.11-0.058-0.216-0.092-0.326-0.378-1.24-0.766-2.484-1.156-3.728l-0.04-0.122-0.576-1.822a10.464 10.464 0 0 0-0.35-0.936 9.878 9.878 0 0 0-0.272-1.014l-0.624-1.922a10 10 0 1 0-19.016 6.204l0.614 1.882zM912.032 656.614l0.208 1.968c0.034 0.324 0.082 0.64 0.144 0.954-0.002 0.326 0.014 0.654 0.046 0.984l0.172 1.798 0.014 0.16c0.978 10.526 1.552 21.016 1.708 31.176a9.998 9.998 0 0 0 9.994 9.848l0.156-0.002a9.996 9.996 0 0 0 9.846-10.15 424.762 424.762 0 0 0-1.794-32.758l-0.192-1.998a10.488 10.488 0 0 0-0.15-1.014 9.654 9.654 0 0 0-0.052-1.044l-0.21-2.024a9.988 9.988 0 0 0-10.996-8.894 10 10 0 0 0-8.894 10.996zM357.96 85.372l1.924 0.156c0.332 0.028 0.662 0.034 0.99 0.036 0.314 0.058 0.632 0.102 0.958 0.132l1.926 0.178h0.016a380.24 380.24 0 0 1 30.878 4.242 10.002 10.002 0 0 0 3.518-19.688 401.21 401.21 0 0 0-32.462-4.46l-0.052-0.004-2.034-0.188a12.08 12.08 0 0 0-1.036-0.04 10.36 10.36 0 0 0-1.004-0.136l-2.064-0.168a9.992 9.992 0 0 0-10.748 9.192 9.996 9.996 0 0 0 9.19 10.748zM688.1 234.22a9.926 9.926 0 0 1-7.5 3.38c-2.34 0-4.7-0.82-6.6-2.5-7.9-6.96-16.02-13.8-24.12-20.36-0.04-0.04-0.08-0.08-0.12-0.1l-1.42-1.16c-0.26-0.2-0.5-0.42-0.74-0.64-0.26-0.18-0.52-0.36-0.78-0.58l-1.56-1.24a9.984 9.984 0 0 1-1.58-14.04 9.988 9.988 0 0 1 14.04-1.6l1.56 1.26c0.28 0.22 0.54 0.44 0.78 0.68 0.28 0.18 0.56 0.38 0.82 0.6l1.56 1.26c0.06 0.02 0.1 0.06 0.14 0.1 8.3 6.72 16.58 13.72 24.64 20.82a10.002 10.002 0 0 1 0.88 14.12zM826.92 398.9a9.968 9.968 0 0 1-13.82-2.94c-5.66-8.68-11.6-17.42-17.66-25.94-0.04-0.06-0.08-0.1-0.12-0.16l-1.16-1.62c-0.18-0.26-0.36-0.54-0.52-0.84-0.22-0.24-0.42-0.48-0.62-0.76l-1.16-1.62a9.992 9.992 0 0 1 2.26-13.96c4.48-3.22 10.74-2.22 13.96 2.26l1.18 1.64c0.2 0.28 0.38 0.56 0.56 0.86 0.22 0.26 0.42 0.52 0.62 0.8l1.06 1.46 0.12 0.18c6.26 8.8 12.4 17.82 18.24 26.8 3.02 4.64 1.7 10.82-2.94 13.84zM763.06 311.88a9.994 9.994 0 0 1-14.1-1.02c-1.42-1.64-2.84-3.28-4.28-4.92-5.66-6.42-11.34-12.68-16.86-18.58l-0.12-0.12-1.24-1.32c-0.22-0.24-0.44-0.48-0.64-0.74-0.24-0.22-0.48-0.44-0.72-0.68l-1.36-1.44c-3.8-4-3.64-10.34 0.36-14.14 4-3.8 10.34-3.64 14.14 0.36l1.38 1.46c0.24 0.24 0.46 0.5 0.68 0.78 0.24 0.22 0.48 0.44 0.72 0.7l1.4 1.48c0.02 0.04 0.06 0.08 0.1 0.12 5.62 6 11.4 12.36 17.18 18.9 1.48 1.7 2.94 3.36 4.38 5.06 3.62 4.16 3.16 10.48-1.02 14.1z" fill="#23130D" p-id="8790"></path><path d="M910.22 809.86a10.006 10.006 0 0 0 8.4-6.76c3.42-10.24 6.32-21 8.62-31.98v-0.02l0.42-2.02c0.08-0.34 0.12-0.68 0.16-1.02 0.1-0.32 0.18-0.68 0.26-1.02l0.38-2.02a9.986 9.986 0 0 0-7.96-11.68 9.97 9.97 0 0 0-11.68 7.96l-0.38 1.92c-0.06 0.32-0.1 0.62-0.14 0.94-0.1 0.3-0.18 0.62-0.24 0.94l-0.38 1.86c0 0.02 0 0.02-0.02 0.04-2.14 10.24-4.84 20.26-8.02 29.78-0.54 1.62-0.58 3.26-0.32 4.82a100.1 100.1 0 0 0-55-16.42c-55.5 0-100.66 45.16-100.66 100.66 0 18.18 4.86 35.22 13.32 49.94-69.26 20.02-155.7 9.9-243.56-28.08 94.02-7.74 181.42-48.06 248.96-115.56 75.44-75.4 116.98-175.66 116.98-282.36 0-5.5-0.14-10.96-0.36-16.4 4.02-2.68 5.64-7.92 3.58-12.44-1.68-3.72-3.42-7.44-5.2-11.16-9.04-91.58-49.08-176.48-115-242.38-68.42-68.42-157.3-108.94-252.84-115.88a9.98 9.98 0 0 0-6.1-9.16c-10.02-4.26-20.18-8.22-30.18-11.76-0.06-0.04-0.12-0.06-0.18-0.08l-1.92-0.68c-0.34-0.1-0.66-0.2-0.98-0.28a9.56 9.56 0 0 0-0.96-0.38l-1.92-0.66c-5.22-1.8-10.9 0.98-12.7 6.22-1.78 5.22 1 10.9 6.22 12.7l1.88 0.64c0.3 0.1 0.62 0.2 0.92 0.28 0.3 0.12 0.6 0.26 0.92 0.36l1.68 0.6c0.06 0.02 0.1 0.04 0.16 0.06 1.1 0.38 2.22 0.8 3.32 1.2-102.8 2.6-199.06 43.84-272.04 116.82-43.76 43.74-76.08 95.84-95.54 152.72-10.88-90.9 8.4-170.18 54.96-223.28 12.2 11.16 28.46 17.98 46.28 17.98 37.86 0 68.66-30.8 68.66-68.66 0-5.22-0.6-10.28-1.7-15.16 6.54-1.48 13.24-2.76 20.02-3.74 5.48-0.8 9.26-5.86 8.46-11.34-0.78-5.46-5.86-9.24-11.32-8.46-8.32 1.22-16.52 2.78-24.5 4.68-11.86-20.68-34.14-34.66-59.62-34.66-37.88 0-68.68 30.82-68.68 68.68 0 12.76 3.5 24.7 9.58 34.94-29.8 32.84-49.68 74.22-59.12 123.14-9.48 49.12-8 103.5 4.36 161.62-5.8 27.28-8.8 55.36-8.8 83.92 0 106.68 41.54 206.96 116.96 282.36 72.9 72.9 169.04 114.14 271.68 116.82 54.02 27.84 107.76 45.76 159.78 53.24 18.02 2.58 35.52 3.86 52.48 3.86 31.24 0 60.6-4.38 87.76-13.12 18.44 20.58 45.22 33.58 74.96 33.58 55.52 0 100.66-45.16 100.66-100.68 0-30.3-13.48-57.52-34.76-75.98zM203.36 57.48c26.82 0 48.66 21.84 48.66 48.68s-21.84 48.66-48.66 48.66c-26.84 0-48.68-21.82-48.68-48.66 0-26.84 21.84-48.68 48.68-48.68zM109.38 428.54c0.1-0.36 0.18-0.72 0.24-1.1 15.38-69.92 50.34-134.1 102.18-185.9 49.42-49.42 110.08-83.5 176.2-99.92-28.26 20.16-54.1 49.76-76.18 87.84-42.1 72.68-65.9 168.32-67.36 270.32H100.82c0.64-24.22 3.52-48.04 8.56-71.24zM211.8 778c-69.28-69.26-108.46-160.62-110.98-258.22h143.64c1.48 101.98 25.26 197.64 67.36 270.3 22.1 38.1 47.94 67.68 76.2 87.84-66.14-16.4-126.8-50.5-176.22-99.92z m258.22 110.68c-52.84-4.3-102.54-42.48-140.88-108.64-40.38-69.68-63.22-161.76-64.66-260.26h205.54v368.9z m0-388.9H264.48c1.44-98.52 24.28-190.6 64.66-260.28 38.34-66.16 88.04-104.34 140.88-108.64v368.92zM748.24 778c-49.44 49.42-110.1 83.5-176.2 99.92 28.26-20.16 54.1-49.74 76.18-87.84 42.1-72.66 65.9-168.32 67.36-270.3h143.64c-2.52 97.6-41.68 188.96-110.98 258.22z m0-536.46c55.32 55.3 91.42 124.68 105.02 200.08-0.36 0.14-0.72 0.24-1.08 0.42a10.02 10.02 0 0 0-4.24 13.5l0.92 1.74c0.14 0.3 0.32 0.6 0.5 0.88 0.12 0.3 0.26 0.6 0.42 0.9l0.88 1.74c0.02 0.02 0.04 0.06 0.04 0.08 2.42 4.72 4.78 9.46 7.08 14.24 0.74 8.16 1.22 16.38 1.44 24.66h-143.64c-1.46-102-25.26-197.64-67.36-270.32-13.8-23.8-29.06-44.28-45.48-61.22 0.12-0.16 0.24-0.3 0.34-0.46 3-4.64 1.68-10.82-2.96-13.82-4.26-2.76-8.58-5.48-12.86-8.12-0.08-0.04-0.16-0.1-0.24-0.14 60.3 17.62 115.56 50.18 161.22 95.84zM490.02 130.86c52.84 4.3 102.54 42.48 140.9 108.64 40.38 69.68 63.2 161.76 64.66 260.28H490.02V130.86z m0 388.92h205.56c-1.46 98.5-24.28 190.58-64.66 260.26-38.36 66.16-88.06 104.34-140.9 108.62V519.78z m354.3 446.74c-44.48 0-80.66-36.2-80.66-80.68 0-44.46 36.18-80.66 80.66-80.66s80.66 36.2 80.66 80.66c0 44.48-36.18 80.68-80.66 80.68z" fill="#23130D" p-id="8791"></path><path d="M924.98 885.84c0 44.48-36.18 80.68-80.66 80.68s-80.66-36.2-80.66-80.68c0-44.46 36.18-80.66 80.66-80.66s80.66 36.2 80.66 80.66z" fill="#EC7063" p-id="8792"></path><path d="M863.12 964.32c-6.04 1.44-12.34 2.2-18.8 2.2-44.48 0-80.66-36.2-80.66-80.68 0-44.46 36.18-80.66 80.66-80.66 6.46 0 12.76 0.76 18.8 2.22-35.44 8.48-61.86 40.44-61.86 78.44 0 38.02 26.42 69.98 61.86 78.48z" fill="#23130D" opacity=".2" p-id="8793"></path><path d="M859.22 519.78c-2.52 97.6-41.68 188.96-110.98 258.22-49.44 49.42-110.1 83.5-176.2 99.92 28.26-20.16 54.1-49.74 76.18-87.84 42.1-72.66 65.9-168.32 67.36-270.3h143.64z" fill="#3594BF" p-id="8794"></path><path d="M695.58 519.78c-1.46 98.5-24.28 190.58-64.66 260.26-38.36 66.16-88.06 104.34-140.9 108.62V519.78h205.56zM470.02 519.78v368.9c-52.84-4.3-102.54-42.48-140.88-108.64-40.38-69.68-63.22-161.76-64.66-260.26h205.54z" fill="#3594BF" p-id="8795"></path><path d="M388.02 877.92c-66.14-16.4-126.8-50.5-176.22-99.92-69.28-69.26-108.46-160.62-110.98-258.22h143.64c1.48 101.98 25.26 197.64 67.36 270.3 22.1 38.1 47.94 67.68 76.2 87.84z" fill="#3594BF" p-id="8796"></path><path d="M252.02 106.16c0 26.84-21.84 48.66-48.66 48.66-26.84 0-48.68-21.82-48.68-48.66 0-26.84 21.84-48.68 48.68-48.68 26.82 0 48.66 21.84 48.66 48.68z" fill="#F9C139" p-id="8797"></path><path d="M217.36 152.74a47.72 47.72 0 0 1-14 2.08c-26.84 0-48.68-21.82-48.68-48.66 0-26.84 21.84-48.68 48.68-48.68 4.86 0 9.56 0.72 14 2.08-20.04 6-34.68 24.62-34.68 46.6s14.64 40.58 34.68 46.58z" fill="#23130D" opacity=".2" p-id="8798"></path><path d="M388 141.62c-28.26 20.16-54.1 49.76-76.18 87.84-42.1 72.68-65.9 168.32-67.36 270.32H100.82c0.64-24.22 3.52-48.04 8.56-71.24 0.1-0.36 0.18-0.72 0.24-1.1 15.38-69.92 50.34-134.1 102.18-185.9 49.42-49.42 110.08-83.5 176.2-99.92z" fill="#3594BF" p-id="8799"></path><path d="M388.02 877.92c-66.14-16.4-126.8-50.5-176.22-99.92-69.28-69.26-108.46-160.62-110.98-258.22h36c2.52 97.6 41.7 188.96 110.98 258.22 33.82 33.82 72.88 60.46 115.38 79.16 8.04 7.76 16.32 14.68 24.84 20.76zM388 141.62c-8.52 6.08-16.82 13.02-24.86 20.78-42.46 18.7-81.54 45.34-115.34 79.14-51.84 51.8-86.8 115.98-102.18 185.9-0.06 0.38-0.14 0.74-0.24 1.1-5.04 23.2-7.92 47.02-8.56 71.24h-36c0.64-24.22 3.52-48.04 8.56-71.24 0.1-0.36 0.18-0.72 0.24-1.1 15.38-69.92 50.34-134.1 102.18-185.9 49.42-49.42 110.08-83.5 176.2-99.92z" fill="#FFFFFF" opacity=".4" p-id="8800"></path><path d="M470.02 130.86v368.92H264.48c1.44-98.52 24.28-190.6 64.66-260.28 38.34-66.16 88.04-104.34 140.88-108.64z" fill="#3594BF" p-id="8801"></path><path d="M470.02 876.98v11.7c-52.84-4.3-102.54-42.48-140.88-108.64-40.38-69.68-63.22-161.76-64.66-260.26h44c1.44 98.5 24.28 190.58 64.66 260.26 27.48 47.4 60.78 80.44 96.88 96.94zM470.02 130.86v11.7c-36.1 16.5-69.4 49.54-96.88 96.94-40.38 69.68-63.22 161.76-64.66 260.28h-44c1.44-98.52 24.28-190.6 64.66-260.28 38.34-66.16 88.04-104.34 140.88-108.64z" fill="#FFFFFF" opacity=".4" p-id="8802"></path><path d="M695.58 499.78H490.02V130.86c52.84 4.3 102.54 42.48 140.9 108.64 40.38 69.68 63.2 161.76 64.66 260.28z" fill="#3594BF" p-id="8803"></path><path d="M859 493.58c-0.06-1.66-0.14-3.3-0.24-4.96l-0.12-2.22c-0.24-3.78-0.52-7.54-0.86-11.3-2.3-4.78-4.66-9.5-7.08-14.22 0-0.02-0.02-0.06-0.04-0.08l-0.88-1.74c-0.16-0.3-0.3-0.6-0.42-0.9-0.18-0.28-0.36-0.58-0.5-0.88l-0.92-1.74a10.02 10.02 0 0 1 4.24-13.5c0.36-0.18 0.72-0.28 1.08-0.42-0.32-1.8-0.66-3.58-1.02-5.38-0.16-0.86-0.32-1.7-0.5-2.56-0.06-0.26-0.1-0.52-0.16-0.78-0.3-1.46-0.6-2.9-0.92-4.36-0.08-0.32-0.16-0.64-0.22-0.98 0-0.04-0.02-0.08-0.02-0.12-0.96-4.36-2-8.72-3.12-13.04-0.56-2.16-1.12-4.32-1.72-6.46-0.44-1.54-0.86-3.08-1.32-4.62-0.82-2.9-1.7-5.78-2.62-8.64-0.46-1.48-0.94-2.92-1.42-4.38-0.24-0.78-0.5-1.56-0.78-2.32-0.52-1.56-1.04-3.1-1.6-4.64-0.16-0.48-0.32-0.98-0.52-1.46-0.62-1.76-1.26-3.52-1.92-5.28-0.1-0.32-0.22-0.62-0.36-0.94-0.52-1.42-1.06-2.82-1.62-4.22-0.38-1.04-0.8-2.08-1.22-3.1-0.52-1.3-1.04-2.6-1.58-3.9-0.28-0.7-0.58-1.4-0.9-2.1-0.48-1.2-1-2.4-1.54-3.6-0.56-1.34-1.14-2.68-1.76-4-0.28-0.68-0.58-1.34-0.88-2-0.7-1.56-1.42-3.1-2.18-4.66-1.2-2.6-2.44-5.16-3.72-7.7-0.94-1.88-1.88-3.74-2.86-5.6-1.48-2.84-3-5.68-4.56-8.48-0.88-1.6-1.78-3.18-2.68-4.76-1.18-2.08-2.38-4.12-3.62-6.18-1.58-2.66-3.2-5.3-4.88-7.92-0.86-1.38-1.76-2.76-2.66-4.12-1.06-1.68-2.16-3.34-3.28-4.98-0.62-0.94-1.26-1.88-1.92-2.8-0.84-1.26-1.72-2.52-2.62-3.76-0.18-0.3-0.38-0.6-0.62-0.88-1.26-1.8-2.56-3.58-3.86-5.36-1.32-1.8-2.66-3.58-4.02-5.36-0.28-0.38-0.56-0.76-0.88-1.14-0.8-1.06-1.64-2.12-2.46-3.18-0.8-1.02-1.62-2.04-2.44-3.06-1.34-1.68-2.7-3.34-4.06-5-0.96-1.12-1.9-2.24-2.86-3.36-1.98-2.36-4-4.68-6.08-6.98-1.6-1.8-3.24-3.6-4.9-5.38-1.64-1.78-3.32-3.56-5.02-5.32-1.68-1.76-3.4-3.5-5.12-5.22-3.44-3.44-6.94-6.82-10.5-10.1-1.22-1.14-2.46-2.26-3.7-3.38-1.6-1.46-3.22-2.9-4.86-4.32-1.56-1.36-3.14-2.72-4.72-4.06-2-1.7-4.02-3.38-6.06-5-1.22-1-2.44-1.98-3.66-2.94-0.28-0.24-0.56-0.46-0.86-0.68-1.46-1.16-2.96-2.32-4.44-3.44-0.14-0.12-0.28-0.24-0.42-0.32-1.3-1-2.6-1.96-3.9-2.92-9.4-6.98-19.1-13.48-29.06-19.5-1.3-0.8-2.62-1.6-3.94-2.36-1.36-0.82-2.72-1.6-4.1-2.38-1.52-0.88-3.06-1.74-4.62-2.6-0.26-0.16-0.54-0.32-0.82-0.46-1.44-0.78-2.88-1.58-4.34-2.34-0.38-0.22-0.76-0.42-1.16-0.62-1.28-0.68-2.56-1.36-3.86-2.02-0.42-0.22-0.84-0.44-1.26-0.64-1.56-0.8-3.14-1.58-4.72-2.36-1.76-0.86-3.54-1.72-5.3-2.56-1.78-0.84-3.56-1.66-5.34-2.46-1.88-0.86-3.8-1.7-5.7-2.52-1.9-0.82-3.82-1.64-5.74-2.42-0.42-0.18-0.84-0.36-1.28-0.54-1.84-0.76-3.7-1.5-5.56-2.22-1.88-0.74-3.78-1.46-5.68-2.16-0.22-0.1-0.42-0.18-0.64-0.24-2.02-0.76-4.04-1.5-6.08-2.2-1.82-0.64-3.64-1.26-5.48-1.88-0.34-0.12-0.7-0.24-1.04-0.34-4.1-1.36-8.22-2.64-12.38-3.86 0.08 0.04 0.16 0.1 0.24 0.14 4.28 2.64 8.6 5.36 12.86 8.12a9.98 9.98 0 0 1 3.98 11.72c-0.24 0.72-0.58 1.42-1.02 2.1-0.1 0.16-0.22 0.3-0.34 0.46 16.42 16.94 31.68 37.42 45.48 61.22 42.1 72.68 65.9 168.32 67.36 270.32h143.64c-0.06-2.06-0.12-4.14-0.22-6.2z m-170.9-259.36a9.926 9.926 0 0 1-7.5 3.38c-2.34 0-4.7-0.82-6.6-2.5-7.9-6.96-16.02-13.8-24.12-20.36-0.04-0.04-0.08-0.08-0.12-0.1l-1.42-1.16c-0.26-0.2-0.5-0.42-0.74-0.64-0.26-0.18-0.52-0.36-0.78-0.58l-1.56-1.24a9.984 9.984 0 0 1-1.58-14.04 9.948 9.948 0 0 1 9.86-3.56c1.48 0.3 2.92 0.96 4.18 1.96l1.56 1.26c0.28 0.22 0.54 0.44 0.78 0.68 0.28 0.18 0.56 0.38 0.82 0.6l1.56 1.26c0.06 0.02 0.1 0.06 0.14 0.1 1.12 0.92 2.26 1.84 3.38 2.76 7.16 5.86 14.3 11.92 21.26 18.06a10.002 10.002 0 0 1 0.88 14.12z m74.96 77.66a9.994 9.994 0 0 1-14.1-1.02c-1.42-1.64-2.84-3.28-4.28-4.92-5.66-6.42-11.34-12.68-16.86-18.58l-0.12-0.12-1.24-1.32c-0.22-0.24-0.44-0.48-0.64-0.74-0.24-0.22-0.48-0.44-0.72-0.68l-1.36-1.44c-3.8-4-3.64-10.34 0.36-14.14a10 10 0 0 1 11.86-1.42c0.82 0.46 1.6 1.06 2.28 1.78l1.38 1.46c0.24 0.24 0.46 0.5 0.68 0.78 0.24 0.22 0.48 0.44 0.72 0.7l1.4 1.48c0.02 0.04 0.06 0.08 0.1 0.12 5.62 6 11.4 12.36 17.18 18.9 1.48 1.7 2.94 3.36 4.38 5.06a9.976 9.976 0 0 1 1.56 10.62c-0.58 1.3-1.44 2.48-2.58 3.48z m63.86 87.02a9.968 9.968 0 0 1-13.82-2.94 807.846 807.846 0 0 0-17.66-25.94c-0.04-0.06-0.08-0.1-0.12-0.16l-1.16-1.62c-0.18-0.26-0.36-0.54-0.52-0.84-0.22-0.24-0.42-0.48-0.62-0.76l-1.16-1.62a9.944 9.944 0 0 1-1.14-9.62c0.66-1.68 1.82-3.2 3.4-4.34 4.48-3.22 10.74-2.22 13.96 2.26l1.18 1.64c0.2 0.28 0.38 0.56 0.56 0.86 0.22 0.26 0.42 0.52 0.62 0.8l1.06 1.46 0.12 0.18c6.26 8.8 12.4 17.82 18.24 26.8 3.02 4.64 1.7 10.82-2.94 13.84z" fill="#3594BF" p-id="8804"></path><path d="M572.02 877.92c66.14-16.4 126.8-50.5 176.22-99.92 69.28-69.26 108.46-160.62 110.98-258.22h-36c-2.52 97.6-41.7 188.96-110.98 258.22-33.82 33.82-72.88 60.46-115.38 79.16-8.04 7.76-16.32 14.68-24.84 20.76zM859.22 499.78h-36c-0.64-24.22-3.52-48.04-8.56-71.24-0.1-0.36-0.18-0.72-0.24-1.1-3.98-18.08-9.26-35.76-15.82-52.94 4.96 7.08 9.82 14.3 14.5 21.46a9.968 9.968 0 0 0 13.82 2.94 9.99 9.99 0 0 0 2.94-13.84c-5.84-8.98-11.98-18-18.24-26.8l-0.12-0.18-1.06-1.46c-0.2-0.28-0.4-0.54-0.62-0.8-0.18-0.3-0.36-0.58-0.56-0.86l-1.18-1.64c-3.22-4.48-9.48-5.48-13.96-2.26a9.78 9.78 0 0 0-3.4 4.34c-7.2-16.22-15.58-31.92-25.08-47 1.54-3.44 1.06-7.6-1.56-10.62-1.44-1.7-2.9-3.36-4.38-5.06-5.78-6.54-11.56-12.9-17.18-18.9-0.04-0.04-0.08-0.08-0.1-0.12l-1.4-1.48c-0.24-0.26-0.48-0.48-0.72-0.7-0.22-0.28-0.44-0.54-0.68-0.78l-1.38-1.46c-0.68-0.72-1.46-1.32-2.28-1.78-7.46-8.96-15.38-17.62-23.72-25.96a383.57 383.57 0 0 0-46.28-39.5c-1.12-0.92-2.26-1.84-3.38-2.76a0.36 0.36 0 0 0-0.14-0.1l-1.56-1.26c-0.26-0.22-0.54-0.42-0.82-0.6-0.24-0.24-0.5-0.46-0.78-0.68l-1.56-1.26c-1.26-1-2.7-1.66-4.18-1.96-15.82-10.52-32.34-19.78-49.44-27.74a9.98 9.98 0 0 0-3.98-11.72c-4.26-2.76-8.58-5.48-12.86-8.12-0.08-0.04-0.16-0.1-0.24-0.14 4.16 1.2 8.28 2.48 12.38 3.86 0.34 0.1 0.7 0.22 1.04 0.34 1.84 0.62 3.66 1.24 5.48 1.88 2.04 0.7 4.06 1.44 6.08 2.2 0.22 0.06 0.42 0.14 0.64 0.24 1.9 0.7 3.8 1.42 5.68 2.16 1.86 0.72 3.72 1.46 5.56 2.22 0.44 0.18 0.86 0.36 1.28 0.54 1.92 0.78 3.84 1.6 5.74 2.42 1.9 0.82 3.82 1.66 5.7 2.52 1.78 0.8 3.56 1.62 5.34 2.46 1.76 0.84 3.54 1.7 5.3 2.56 1.58 0.78 3.16 1.56 4.72 2.36 0.42 0.2 0.84 0.42 1.26 0.64 1.3 0.66 2.58 1.34 3.86 2.02 0.4 0.2 0.78 0.4 1.16 0.62 1.46 0.76 2.9 1.56 4.34 2.34 0.28 0.14 0.56 0.3 0.82 0.46 1.56 0.86 3.1 1.72 4.62 2.6 1.38 0.78 2.74 1.56 4.1 2.38 1.32 0.76 2.64 1.56 3.94 2.36 9.96 6.02 19.66 12.52 29.06 19.5 1.3 0.96 2.6 1.92 3.9 2.92 0.14 0.08 0.28 0.2 0.42 0.32 1.48 1.12 2.98 2.28 4.44 3.44 0.3 0.22 0.58 0.44 0.86 0.68 1.22 0.96 2.44 1.94 3.66 2.94 2.04 1.62 4.06 3.3 6.06 5 1.58 1.34 3.16 2.7 4.72 4.06 1.64 1.42 3.26 2.86 4.86 4.32 1.24 1.12 2.48 2.24 3.7 3.38 3.56 3.28 7.06 6.66 10.5 10.1 1.72 1.72 3.44 3.46 5.12 5.22 1.7 1.76 3.38 3.54 5.02 5.32 1.66 1.78 3.3 3.58 4.9 5.38 2.08 2.3 4.1 4.62 6.08 6.98 0.96 1.12 1.9 2.24 2.86 3.36 1.36 1.66 2.72 3.32 4.06 5 0.82 1.02 1.64 2.04 2.44 3.06 0.82 1.06 1.66 2.12 2.46 3.18 0.32 0.38 0.6 0.76 0.88 1.14a340.084 340.084 0 0 1 7.88 10.72c0.24 0.28 0.44 0.58 0.62 0.88 0.9 1.24 1.78 2.5 2.62 3.76 0.66 0.92 1.3 1.86 1.92 2.8 1.12 1.64 2.22 3.3 3.28 4.98 0.9 1.36 1.8 2.74 2.66 4.12 1.68 2.62 3.3 5.26 4.88 7.92 1.24 2.06 2.44 4.1 3.62 6.18 0.9 1.58 1.8 3.16 2.68 4.76 1.56 2.8 3.08 5.64 4.56 8.48 0.98 1.86 1.92 3.72 2.86 5.6 1.28 2.54 2.52 5.1 3.72 7.7 0.76 1.56 1.48 3.1 2.18 4.66 0.3 0.66 0.6 1.32 0.88 2 0.62 1.32 1.2 2.66 1.76 4 0.54 1.2 1.06 2.4 1.54 3.6 0.32 0.7 0.62 1.4 0.9 2.1 0.54 1.3 1.06 2.6 1.58 3.9 0.42 1.02 0.84 2.06 1.22 3.1 0.56 1.4 1.1 2.8 1.62 4.22 0.14 0.32 0.26 0.62 0.36 0.94 0.66 1.76 1.3 3.52 1.92 5.28 0.2 0.48 0.36 0.98 0.52 1.46 0.56 1.54 1.08 3.08 1.6 4.64 0.28 0.76 0.54 1.54 0.78 2.32 0.48 1.46 0.96 2.9 1.42 4.38 0.92 2.86 1.8 5.74 2.62 8.64 0.46 1.54 0.88 3.08 1.32 4.62 0.6 2.14 1.16 4.3 1.72 6.46a363.4 363.4 0 0 1 3.12 13.04c0 0.04 0.02 0.08 0.02 0.12 0.06 0.34 0.14 0.66 0.22 0.98 0.32 1.46 0.62 2.9 0.92 4.36 0.06 0.26 0.1 0.52 0.16 0.78 0.18 0.86 0.34 1.7 0.5 2.56 0.36 1.8 0.7 3.58 1.02 5.38-0.36 0.14-0.72 0.24-1.08 0.42a10.02 10.02 0 0 0-4.24 13.5l0.92 1.74c0.14 0.3 0.32 0.6 0.5 0.88 0.12 0.3 0.26 0.6 0.42 0.9l0.88 1.74c0.02 0.02 0.04 0.06 0.04 0.08 2.42 4.72 4.78 9.44 7.08 14.22 0.34 3.76 0.62 7.52 0.86 11.3l0.12 2.22c0.1 1.66 0.18 3.3 0.24 4.96 0.1 2.06 0.16 4.14 0.22 6.2zM490.02 876.98v11.7c52.84-4.3 102.54-42.48 140.88-108.64 40.38-69.68 63.22-161.76 64.66-260.26h-44c-1.44 98.5-24.28 190.58-64.66 260.26-27.48 47.4-60.78 80.44-96.88 96.94zM490.02 130.86v11.7c36.1 16.5 69.4 49.54 96.88 96.94 40.38 69.68 63.22 161.76 64.66 260.28h44c-1.44-98.52-24.28-190.6-64.66-260.28-38.34-66.16-88.04-104.34-140.88-108.64z" opacity=".2" p-id="8805"></path></svg>